<svg xmlns="http://www.w3.org/2000/svg" viewBox="0 0 512 512" style="height: 512px; width: 512px;"><defs><linearGradient x1="0" x2="0" y1="0" y2="1" id="gradient-4"><stop offset="0%" stop-color="#f5e7cc" stop-opacity="1"></stop><stop offset="100%" stop-color="#ffffff" stop-opacity="1"></stop></linearGradient><linearGradient id="gradient-6" x1="0" x2="0" y1="0" y2="1"><stop offset="0%" stop-color="#ffffff" stop-opacity="1"></stop><stop offset="100%" stop-color="#f5e7cc" stop-opacity="1"></stop></linearGradient></defs><g class="" transform="translate(0,0)" style="touch-action: none;"><g><path d="M92.656 19.188L92.656 60.688L424.376 60.688L424.376 19.188L92.655 19.188Z" class="" fill="#442709" fill-opacity="1"></path><path d="M119.5 79.374L119.5 433.53L141.78 433.53L141.78 79.376L119.5 79.376Z" class="" fill="#e0f0fd" fill-opacity="1"></path><path d="M166.094 79.374C169.306 122.698 179.406 161.396 193.874 190.28C211.559 225.584 234.719 245.03 257.938 245.03C281.156 245.03 304.284 225.584 321.968 190.28C336.438 161.397 346.538 122.7 349.75 79.375L166.094 79.375Z" class="selected" fill="url(#gradient-4)"></path><path d="M375.25 79.374L375.25 433.53L397.53 433.53L397.53 79.376L375.25 79.376Z" class="" fill="#e0f0fd" fill-opacity="1"></path><path d="M257.937 264.594C234.719 264.594 211.559 284.009 193.875 319.311C179.04 348.925 168.777 388.873 165.845 433.531L350 433.531C347.067 388.873 336.803 348.925 321.97 319.311C304.284 284.009 281.156 264.593 257.937 264.593Z" class="" fill="url(#gradient-6)"></path><path d="M92.657 452.218L92.657 493.685L424.375 493.685L424.375 452.22L92.655 452.22Z" class="" fill="#442709" fill-opacity="1"></path></g></g></svg>