<?xml version="1.0" encoding="UTF-8" standalone="no"?>
<!-- Created with Inkscape (http://www.inkscape.org/) -->

<svg
   xmlns:dc="http://purl.org/dc/elements/1.1/"
   xmlns:cc="http://creativecommons.org/ns#"
   xmlns:rdf="http://www.w3.org/1999/02/22-rdf-syntax-ns#"
   xmlns:svg="http://www.w3.org/2000/svg"
   xmlns="http://www.w3.org/2000/svg"
   xmlns:sodipodi="http://sodipodi.sourceforge.net/DTD/sodipodi-0.dtd"
   xmlns:inkscape="http://www.inkscape.org/namespaces/inkscape"
   id="svg3101"
   version="1.1"
   inkscape:version="0.48.1 "
   width="360"
   height="245"
   xml:space="preserve"
   sodipodi:docname="Book_02.pdf"><metadata
     id="metadata3107"><rdf:RDF><cc:Work
         rdf:about=""><dc:format>image/svg+xml</dc:format><dc:type
           rdf:resource="http://purl.org/dc/dcmitype/StillImage" /><dc:title></dc:title></cc:Work></rdf:RDF></metadata><defs
     id="defs3105" /><sodipodi:namedview
     pagecolor="#ffffff"
     bordercolor="#666666"
     borderopacity="1"
     objecttolerance="10"
     gridtolerance="10"
     guidetolerance="10"
     inkscape:pageopacity="0"
     inkscape:pageshadow="2"
     inkscape:window-width="640"
     inkscape:window-height="480"
     id="namedview3103"
     showgrid="false"
     inkscape:zoom="1.1877551"
     inkscape:cx="180"
     inkscape:cy="122.5"
     inkscape:window-x="415"
     inkscape:window-y="97"
     inkscape:window-maximized="0"
     inkscape:current-layer="g3109" /><g
     id="g3109"
     inkscape:groupmode="layer"
     inkscape:label="Book_02"
     transform="matrix(1.25,0,0,-1.25,0,245)"><g
       id="g3111"
       transform="scale(0.24,0.24)"><path
         d="m 597.25,105.25 -16,14 -16,13 -20,8 -21,9 -18,5 -21,2 -22,0 -20,-2 -27,-8 -30,-7 -29,-11 -26,-9 -33,-9 -37,-9 -35,-6 -36,-2 -72,0 0,644 72,0 36,3 35,7 37,7 33,11 25,10 29,9 31,9 6,2 21,5 20,2 22,0 21,-2 18,-5 21,-7 20,-12 16,-11 16,-14 0,-646"
         style="fill:#ffffe3;fill-opacity:1;fill-rule:nonzero;stroke:none"
         id="path3113" /><path
         d="m 597.25,105.25 -16,14 -16,13 -20,8 -21,9 -18,5 -21,2 -22,0 -20,-2 -27,-8 -30,-7 -29,-11 -26,-9 -33,-9 -37,-9 -35,-6 -36,-2 -72,0 0,644 72,0 36,3 35,7 37,7 33,11 25,10 29,9 31,9 6,2 21,5 20,2 22,0 21,-2 18,-5 21,-7 20,-12 16,-11 16,-14 0,-646 z"
         style="fill:none;stroke:#000000;stroke-opacity:1;stroke-width:4.16667;stroke-linecap:butt;stroke-linejoin:miter;stroke-miterlimit:4;stroke-dasharray:none"
         id="path3115" /><path
         d="m 597.25,105.25 17,14 16,13 21,8 19,9 20,5 21,2 21,0 21,-2 26,-7 33,-8 54,-20 36,-9 36,-9 35,-6 37,-2 73,0 0,644 -73,0 -37,3 -35,7 -37,7 -35,11 -21,7 -33,10 -31,11 -7,2 -21,5 -21,2 -21,0 -21,-2 -20,-5 -19,-7 -21,-12 -16,-11 -17,-14 0,-646"
         style="fill:#ffffe3;fill-opacity:1;fill-rule:nonzero;stroke:none"
         id="path3117" /><path
         d="m 597.25,105.25 17,14 16,13 21,8 19,9 20,5 21,2 21,0 21,-2 26,-7 33,-8 54,-20 36,-9 36,-9 35,-6 37,-2 73,0 0,644 -73,0 -37,3 -35,7 -37,7 -35,11 -21,7 -33,10 -31,11 -7,2 -21,5 -21,2 -21,0 -21,-2 -20,-5 -19,-7 -21,-12 -16,-11 -17,-14 0,-646 z"
         style="fill:none;stroke:#000000;stroke-opacity:1;stroke-width:4.16667;stroke-linecap:butt;stroke-linejoin:miter;stroke-miterlimit:4;stroke-dasharray:none"
         id="path3119" /><path
         d="m 1083.25,737.25 0,-644 -73,0 -37,2 -35,6 -36,9 -36,9 -54,20 -33,8 -26,7 -21,2 -21,0 -20,-2 -21,-5 -19,-9 -21,-8 -16,-13 -17,-14 -16,14 -16,13 -20,8 -21,9 -19,5 -20,2 -22,0 -20,-2 -27,-8 -31,-8 -30,-12 -24,-7 -33,-9 -37,-9 -35,-6 -38,-2 -71,0 0,644 -40,-26 -33,-22 0,-644 90,2 60,0 29,1 29,3 28,4 30,4 43,6 27,4 5,1 17,2 19,1 32,0 12,-1 13,0 9,-2 13,-1 11,-2 4,0 2,-2 3,-1 1,-2 2,-1 1,-2 0,-3 3,-2 0,-22 139,0 0,16 2,3 0,5 2,3 2,2 1,1 2,2 2,1 2,0 2,2 1,0 13,2 11,1 12,0 12,2 12,1 36,0 17,-1 16,-3 6,0 27,-4 24,-3 7,-1 41,-6 29,-4 30,-3 30,-1 61,0 89,-2 0,644 -31,22 -41,26"
         style="fill:#ffc283;fill-opacity:1;fill-rule:nonzero;stroke:none"
         id="path3121" /><path
         d="m 1083.25,737.25 0,-644 -73,0 -37,2 -35,6 -36,9 -36,9 -54,20 -33,8 -26,7 -21,2 -21,0 -20,-2 -21,-5 -19,-9 -21,-8 -16,-13 -17,-14 -16,14 -16,13 -20,8 -21,9 -19,5 -20,2 -22,0 -20,-2 -27,-8 -31,-8 -30,-12 -24,-7 -33,-9 -37,-9 -35,-6 -38,-2 -71,0 0,644 -40,-26 -33,-22 0,-644 90,2 60,0 29,1 29,3 28,4 30,4 43,6 27,4 5,1 17,2 19,1 32,0 12,-1 13,0 9,-2 13,-1 11,-2 4,0 2,-2 3,-1 1,-2 2,-1 1,-2 0,-3 3,-2 0,-22 139,0 0,16 2,3 0,5 2,3 2,2 1,1 2,2 2,1 2,0 2,2 1,0 13,2 11,1 12,0 12,2 12,1 36,0 17,-1 16,-3 6,0 27,-4 24,-3 7,-1 41,-6 29,-4 30,-3 30,-1 61,0 89,-2 0,644 -31,22 -41,26 z"
         style="fill:none;stroke:#000000;stroke-opacity:1;stroke-width:4.16667;stroke-linecap:butt;stroke-linejoin:miter;stroke-miterlimit:4;stroke-dasharray:none"
         id="path3123" /><path
         d="m 77.25,711.25 -33,-22 0,-644 90,2 60,0 29,1 29,3 28,4 30,4 43,6 27,4 5,1 17,2 19,1 32,0 12,-1 13,0 9,-2 13,-1 11,-2 4,0 2,-2 3,-1 1,-2 2,-1 1,-2 0,-3 3,-2 0,-22 139,0 0,16 2,3 0,5 2,3 2,2 1,1 2,2 2,1 2,0 2,2 1,0 13,2 11,1 12,0 12,2 12,1 36,0 17,-1 16,-3 6,0 27,-4 24,-3 7,-1 41,-6 29,-4 30,-3 30,-1 61,0 89,-2 0,644 -31,22 63,0 0,-697 -494,24 1,-6 -1,-7 -4,-6 -7,-3 -170,0 -9,9 -1,7 1,6 -490,-24 0,697 64,0"
         style="fill:#834609;fill-opacity:1;fill-rule:nonzero;stroke:none"
         id="path3125" /><path
         d="m 77.25,711.25 -33,-22 0,-644 90,2 60,0 29,1 29,3 28,4 30,4 43,6 27,4 5,1 17,2 19,1 32,0 12,-1 13,0 9,-2 13,-1 11,-2 4,0 2,-2 3,-1 1,-2 2,-1 1,-2 0,-3 3,-2 0,-22 139,0 0,16 2,3 0,5 2,3 2,2 1,1 2,2 2,1 2,0 2,2 1,0 13,2 11,1 12,0 12,2 12,1 36,0 17,-1 16,-3 6,0 27,-4 24,-3 7,-1 41,-6 29,-4 30,-3 30,-1 61,0 89,-2 0,644 -31,22 63,0 0,-697 -494,24 1,-6 -1,-7 -4,-6 -7,-3 -170,0 -9,9 -1,7 1,6 -490,-24 0,697 64,0 z"
         style="fill:none;stroke:#000000;stroke-opacity:1;stroke-width:4.16667;stroke-linecap:butt;stroke-linejoin:miter;stroke-miterlimit:4;stroke-dasharray:none"
         id="path3127" /></g></g></svg>